<?xml version="1.0" encoding="UTF-8"?>
<!DOCTYPE svg PUBLIC "-//W3C//DTD SVG 1.1//EN" "http://www.w3.org/Graphics/SVG/1.1/DTD/svg11.dtd">
<svg xmlns="http://www.w3.org/2000/svg" version="1.1" width="1080px" height="1080px" style="shape-rendering:geometricPrecision; text-rendering:geometricPrecision; image-rendering:optimizeQuality; fill-rule:evenodd; clip-rule:evenodd" xmlns:xlink="http://www.w3.org/1999/xlink">
<g><path style="opacity:1" fill="#000000" d="M -0.5,-0.5 C 359.5,-0.5 719.5,-0.5 1079.5,-0.5C 1079.5,359.5 1079.5,719.5 1079.5,1079.5C 719.5,1079.5 359.5,1079.5 -0.5,1079.5C -0.5,719.5 -0.5,359.5 -0.5,-0.5 Z"/></g>
<g><path style="opacity:1" fill="#d9e049" d="M 487.5,202.5 C 388.924,226.57 323.757,286.903 292,383.5C 270.234,470.011 286.567,548.344 341,618.5C 380.274,664.388 429.441,693.722 488.5,706.5C 399.685,720.393 323.185,696.06 259,633.5C 192.34,559.851 172.007,474.851 198,378.5C 230.773,285.062 295.273,226.562 391.5,203C 423.493,197.198 455.493,197.031 487.5,202.5 Z"/></g>
<g><path style="opacity:1" fill="#fefefe" d="M 757.5,587.5 C 676.536,542.352 595.869,496.685 515.5,450.5C 514.501,536.665 514.167,622.998 514.5,709.5C 513.167,709.5 511.833,709.5 510.5,709.5C 503.142,708.664 495.809,707.664 488.5,706.5C 429.441,693.722 380.274,664.388 341,618.5C 286.567,548.344 270.234,470.011 292,383.5C 323.757,286.903 388.924,226.57 487.5,202.5C 583.235,187.244 664.402,214.578 731,284.5C 797.753,365.741 812.42,455.741 775,554.5C 770.171,566.164 764.338,577.164 757.5,587.5 Z"/></g>
<g><path style="opacity:1" fill="#d2aaaa" d="M 515.5,450.5 C 515.5,537.167 515.5,623.833 515.5,710.5C 513.585,710.784 511.919,710.451 510.5,709.5C 511.833,709.5 513.167,709.5 514.5,709.5C 514.167,622.998 514.501,536.665 515.5,450.5 Z"/></g>
<g><path style="opacity:1" fill="#943131" d="M 515.5,450.5 C 595.869,496.685 676.536,542.352 757.5,587.5C 790.167,606.5 822.833,625.5 855.5,644.5C 742.15,708.861 628.816,773.195 515.5,837.5C 515.5,795.167 515.5,752.833 515.5,710.5C 515.5,623.833 515.5,537.167 515.5,450.5 Z"/></g>
<g><path style="opacity:1" fill="#fefefe" d="M 855.5,644.5 C 894.302,666.402 932.969,688.569 971.5,711C 819.748,797.96 667.915,884.793 516,971.5C 515.5,926.835 515.333,882.168 515.5,837.5C 628.816,773.195 742.15,708.861 855.5,644.5 Z"/></g>
</svg>
